<svg width="20" height="20" viewBox="0 0 20 20" fill="none" xmlns="http://www.w3.org/2000/svg">
    <path d="M18 6.5C18 7.16304 17.7366 7.79893 17.2678 8.26777C16.7989 8.73661 16.163 9 15.5 9C14.42 9 13.5 8.31 13.16 7.36C12.72 7.75 12.14 8 11.5 8C10.94 8 10.42 7.81 10 7.5C9.58 7.81 9.07 8 8.5 8C7.86 8 7.28 7.75 6.84 7.36C6.5 8.31 5.58 9 4.5 9C3.83696 9 3.20107 8.73661 2.73223 8.26777C2.26339 7.79893 2 7.16304 2 6.5C2 5.26 2.91 4.23 4.1 4.04C4.04 3.87 4 3.69 4 3.5C4 3.10218 4.15804 2.72064 4.43934 2.43934C4.72064 2.15804 5.10218 2 5.5 2C5.7 2 5.89 2.04 6.06 2.11C6.23 1.47 6.81 1 7.5 1C7.75 1 8 1.07 8.18 1.17C8.5 0.5 9.19 0 10 0C10.81 0 11.5 0.5 11.82 1.17C12 1.07 12.25 1 12.5 1C13.19 1 13.77 1.47 13.94 2.11C14.11 2.04 14.3 2 14.5 2C14.8978 2 15.2794 2.15804 15.5607 2.43934C15.842 2.72064 16 3.10218 16 3.5C16 3.69 15.96 3.87 15.9 4.04C17.09 4.23 18 5.26 18 6.5ZM8 10C7.73478 10 7.48043 10.1054 7.29289 10.2929C7.10536 10.4804 7 10.7348 7 11C7 11.2652 7.10536 11.5196 7.29289 11.7071C7.48043 11.8946 7.73478 12 8 12C8.26522 12 8.51957 11.8946 8.70711 11.7071C8.89464 11.5196 9 11.2652 9 11C9 10.7348 8.89464 10.4804 8.70711 10.2929C8.51957 10.1054 8.26522 10 8 10ZM12 10C11.7348 10 11.4804 10.1054 11.2929 10.2929C11.1054 10.4804 11 10.7348 11 11C11 11.2652 11.1054 11.5196 11.2929 11.7071C11.4804 11.8946 11.7348 12 12 12C12.2652 12 12.5196 11.8946 12.7071 11.7071C12.8946 11.5196 13 11.2652 13 11C13 10.7348 12.8946 10.4804 12.7071 10.2929C12.5196 10.1054 12.2652 10 12 10ZM18.23 8.66C17.59 9.47 16.61 10 15.5 10C15.05 10 14.62 9.9 14.21 9.73C14.2 12.28 13.83 15.36 12.45 16.95C11.93 17.54 11.3 17.86 10.5 17.96V16H9.5V17.96C8.7 17.86 8.07 17.55 7.55 16.95C6.16 15.35 5.79 12.29 5.78 9.74C5.38 9.9 4.95 10 4.5 10C3.39 10 2.41 9.47 1.77 8.66C0.88 9.55 0 10 0 10C0 10 1 12 3 12C3.36 12 3.64 11.96 3.88 11.91C4.22 15.73 5.58 20 10 20C14.42 20 15.78 15.73 16.12 11.91C16.36 11.96 16.64 12 17 12C19 12 20 10 20 10C20 10 19.12 9.55 18.23 8.66Z"/>
</svg>
