<svg width="93" height="26" viewBox="0 0 93 26" fill="none" xmlns="http://www.w3.org/2000/svg">
    <ellipse cx="12.9011" cy="13" rx="12.9011" ry="13" fill="white"/>
    <ellipse cx="12.9012" cy="13" rx="10.9163" ry="11" fill="#1A1A1A"/>
    <path d="M12.3181 4.75C8.93154 4.75 6.23967 7.725 6.32651 11.1375C6.41334 13.4125 7.71586 15.3375 9.53938 16.3C10.7551 16.9125 11.5366 18.1375 11.5366 19.45V19.625C11.5366 21.1125 12.6654 22.25 14.1416 22.25C17.615 22.25 18.4833 17.875 18.4833 10.875C18.4833 10.875 18.4833 4.75 12.3181 4.75ZM14.1416 20.5C13.6206 20.5 13.2733 20.15 13.2733 19.625V19.45C13.2733 17.525 12.1444 15.6875 10.4077 14.725C9.01837 14.025 8.15003 12.625 8.06319 11.05C8.06319 9.9125 8.49736 8.6875 9.27887 7.8125C10.0604 6.9375 11.1892 6.5 12.2312 6.5C16.4861 6.5 16.7466 10.175 16.7466 10.875C16.7466 19.5375 15.2704 20.5 14.1416 20.5ZM15.7046 9.65L9.19204 12.0125C9.01837 11.75 8.93154 11.4 8.93154 10.9625C8.93154 10.35 9.10521 9.825 9.36571 9.2125L13.8811 7.55C14.9231 8.075 15.4441 8.8625 15.7046 9.65ZM13.1864 16.2125L15.6178 15.3375C15.5309 16.65 15.2704 17.6125 15.0968 18.225L13.9679 18.6625C13.9679 17.7875 13.7074 17 13.1864 16.2125ZM15.8783 11.05C15.8783 12.1 15.8783 13.0625 15.7915 13.85L12.3181 15.1625C11.8839 14.725 11.3629 14.2875 10.7551 14.025C10.4077 13.85 10.0604 13.5875 9.79988 13.325L15.8783 11.05Z" fill="white"/>
    <path d="M39.6461 9.15991C40.5538 9.15991 41.2763 9.44924 41.8135 10.0279C42.36 10.6066 42.6332 11.4326 42.6332 12.5059V16.9999H41.0493V12.6739C41.0493 12.0019 40.8826 11.4839 40.5492 11.1199C40.2157 10.7466 39.7573 10.5599 39.1737 10.5599C38.5532 10.5599 38.0576 10.7606 37.6871 11.1619C37.3259 11.5539 37.1453 12.1326 37.1453 12.8979V16.9999H35.5614V12.6739C35.5614 12.0019 35.3947 11.4839 35.0613 11.1199C34.7278 10.7466 34.2693 10.5599 33.6858 10.5599C33.0652 10.5599 32.5697 10.7606 32.1992 11.1619C31.838 11.5539 31.6573 12.1326 31.6573 12.8979V16.9999H30.0735V9.28591H31.6573V10.8959C31.8519 10.3359 32.176 9.90658 32.6299 9.60791C33.0837 9.30924 33.6163 9.15991 34.2276 9.15991C34.8667 9.15991 35.4179 9.31858 35.881 9.63591C36.3533 9.95324 36.6961 10.4106 36.9091 11.0079C37.1314 10.4292 37.488 9.97658 37.9789 9.64991C38.4698 9.32324 39.0255 9.15991 39.6461 9.15991Z" fill="white"/>
    <path d="M51.596 12.7719C51.596 13.0332 51.5775 13.2619 51.5405 13.4579H45.6496C45.6774 14.2512 45.8951 14.8392 46.3026 15.2219C46.7102 15.6046 47.215 15.7959 47.817 15.7959C48.345 15.7959 48.7895 15.6606 49.1508 15.3899C49.5213 15.1192 49.7482 14.7599 49.8316 14.3119H51.5266C51.4247 14.8532 51.2116 15.3339 50.8875 15.7539C50.5633 16.1739 50.1418 16.5052 49.6232 16.7479C49.1045 16.9812 48.5256 17.0979 47.8865 17.0979C47.1455 17.0979 46.4879 16.9392 45.9136 16.6219C45.3486 16.3046 44.904 15.8472 44.5798 15.2499C44.2556 14.6526 44.0935 13.9479 44.0935 13.1359C44.0935 12.3332 44.2556 11.6332 44.5798 11.0359C44.904 10.4386 45.3486 9.98124 45.9136 9.66391C46.4879 9.34658 47.1455 9.18791 47.8865 9.18791C48.6367 9.18791 49.2897 9.34658 49.8455 9.66391C50.4105 9.97191 50.8412 10.4012 51.1375 10.9519C51.4432 11.4932 51.596 12.0999 51.596 12.7719ZM49.9983 12.7299C50.0168 12.2259 49.9288 11.8059 49.7343 11.4699C49.5491 11.1246 49.2897 10.8726 48.9563 10.7139C48.6321 10.5459 48.2755 10.4619 47.8865 10.4619C47.2659 10.4619 46.7472 10.6532 46.3304 11.0359C45.9136 11.4186 45.6867 11.9832 45.6496 12.7299H49.9983Z" fill="white"/>
    <path d="M56.1958 9.18791C56.8904 9.18791 57.4832 9.36058 57.9741 9.70591C58.465 10.0512 58.8124 10.5086 59.0161 11.0779V9.28591H60.6V16.9999H59.0161V15.2079C58.8124 15.7772 58.465 16.2346 57.9741 16.5799C57.4832 16.9252 56.8904 17.0979 56.1958 17.0979C55.5289 17.0979 54.9314 16.9392 54.4035 16.6219C53.8848 16.3046 53.4773 15.8472 53.1809 15.2499C52.8845 14.6526 52.7363 13.9479 52.7363 13.1359C52.7363 12.3332 52.8845 11.6332 53.1809 11.0359C53.4773 10.4386 53.8848 9.98124 54.4035 9.66391C54.9314 9.34658 55.5289 9.18791 56.1958 9.18791ZM56.682 10.5879C55.9781 10.5879 55.4131 10.8166 54.987 11.2739C54.5702 11.7219 54.3618 12.3426 54.3618 13.1359C54.3618 13.9292 54.5702 14.5546 54.987 15.0119C55.4131 15.4599 55.9781 15.6839 56.682 15.6839C57.1266 15.6839 57.5249 15.5812 57.8769 15.3759C58.2288 15.1612 58.5067 14.8626 58.7105 14.4799C58.9143 14.0972 59.0161 13.6492 59.0161 13.1359C59.0161 12.6319 58.9143 12.1886 58.7105 11.8059C58.5067 11.4139 58.2288 11.1152 57.8769 10.9099C57.5249 10.6952 57.1266 10.5879 56.682 10.5879Z" fill="white"/>
    <path d="M66.3492 15.6139V16.9999H65.3766C64.5616 16.9999 63.941 16.8039 63.5149 16.4119C63.0981 16.0106 62.8897 15.3479 62.8897 14.4239V10.6439H61.7921V9.28591H62.8897V7.36791H64.4875V9.28591H66.3353V10.6439H64.4875V14.4519C64.4875 14.8906 64.5662 15.1939 64.7237 15.3619C64.8904 15.5299 65.1775 15.6139 65.585 15.6139H66.3492Z" fill="white"/>
    <path d="M74.9463 12.7719C74.9463 13.0332 74.9278 13.2619 74.8908 13.4579H68.9999C69.0277 14.2512 69.2454 14.8392 69.6529 15.2219C70.0605 15.6046 70.5653 15.7959 71.1673 15.7959C71.6953 15.7959 72.1398 15.6606 72.5011 15.3899C72.8716 15.1192 73.0985 14.7599 73.1819 14.3119H74.8769C74.775 14.8532 74.5619 15.3339 74.2378 15.7539C73.9136 16.1739 73.4921 16.5052 72.9735 16.7479C72.4548 16.9812 71.8759 17.0979 71.2368 17.0979C70.4958 17.0979 69.8382 16.9392 69.2639 16.6219C68.6989 16.3046 68.2543 15.8472 67.9301 15.2499C67.6059 14.6526 67.4438 13.9479 67.4438 13.1359C67.4438 12.3332 67.6059 11.6332 67.9301 11.0359C68.2543 10.4386 68.6989 9.98124 69.2639 9.66391C69.8382 9.34658 70.4958 9.18791 71.2368 9.18791C71.987 9.18791 72.64 9.34658 73.1958 9.66391C73.7608 9.97191 74.1915 10.4012 74.4879 10.9519C74.7935 11.4932 74.9463 12.0999 74.9463 12.7719ZM73.3486 12.7299C73.3671 12.2259 73.2791 11.8059 73.0846 11.4699C72.8994 11.1246 72.64 10.8726 72.3066 10.7139C71.9824 10.5459 71.6258 10.4619 71.2368 10.4619C70.6162 10.4619 70.0975 10.6532 69.6807 11.0359C69.2639 11.4186 69.037 11.9832 68.9999 12.7299H73.3486Z" fill="white"/>
    <path d="M78.0595 10.7979C78.3188 10.2939 78.6893 9.89724 79.1709 9.60791C79.6526 9.30924 80.2083 9.15991 80.8382 9.15991V10.8959H80.3658C79.6711 10.8959 79.1107 11.0686 78.6847 11.4139C78.2679 11.7499 78.0595 12.3099 78.0595 13.0939V16.9999H76.4756V9.28591H78.0595V10.7979Z" fill="white"/>
    <path d="M81.8026 7.04591C81.8026 6.77524 81.8952 6.55124 82.0804 6.37391C82.2657 6.19658 82.5111 6.10791 82.8168 6.10791C83.1224 6.10791 83.3679 6.19658 83.5531 6.37391C83.7477 6.55124 83.8449 6.77524 83.8449 7.04591C83.8449 7.31658 83.7477 7.53591 83.5531 7.70391C83.3679 7.87191 83.1224 7.95591 82.8168 7.95591C82.5111 7.95591 82.2657 7.87191 82.0804 7.70391C81.8952 7.53591 81.8026 7.31658 81.8026 7.04591ZM83.6087 9.28591V16.9999H82.0249V9.28591H83.6087Z" fill="white"/>
    <path d="M88.5958 9.18791C89.2905 9.18791 89.8833 9.36058 90.3742 9.70591C90.8651 10.0512 91.2124 10.5086 91.4162 11.0779V9.28591H93.0001V16.9999H91.4162V15.2079C91.2124 15.7772 90.8651 16.2346 90.3742 16.5799C89.8833 16.9252 89.2905 17.0979 88.5958 17.0979C87.9289 17.0979 87.3315 16.9392 86.8036 16.6219C86.2849 16.3046 85.8773 15.8472 85.5809 15.2499C85.2845 14.6526 85.1363 13.9479 85.1363 13.1359C85.1363 12.3332 85.2845 11.6332 85.5809 11.0359C85.8773 10.4386 86.2849 9.98124 86.8036 9.66391C87.3315 9.34658 87.9289 9.18791 88.5958 9.18791ZM89.0821 10.5879C88.3782 10.5879 87.8132 10.8166 87.3871 11.2739C86.9703 11.7219 86.7619 12.3426 86.7619 13.1359C86.7619 13.9292 86.9703 14.5546 87.3871 15.0119C87.8132 15.4599 88.3782 15.6839 89.0821 15.6839C89.5267 15.6839 89.925 15.5812 90.2769 15.3759C90.6289 15.1612 90.9068 14.8626 91.1105 14.4799C91.3143 14.0972 91.4162 13.6492 91.4162 13.1359C91.4162 12.6319 91.3143 12.1886 91.1105 11.8059C90.9068 11.4139 90.6289 11.1152 90.2769 10.9099C89.925 10.6952 89.5267 10.5879 89.0821 10.5879Z" fill="white"/>
</svg>
