<svg width="159" height="38" viewBox="0 0 159 38" fill="none" xmlns="http://www.w3.org/2000/svg">
    <circle cx="18.6658" cy="18.6658" r="18.6658" fill="black"/>
    <circle cx="18.6657" cy="18.6658" r="15.7942" fill="white"/>
    <path d="M17.8224 6.82025C12.9227 6.82025 9.02796 11.0919 9.15359 15.9916C9.27923 19.2582 11.1638 22.0221 13.8021 23.4041C15.561 24.2836 16.6917 26.0425 16.6917 27.927V28.1783C16.6917 30.3141 18.325 31.9473 20.4608 31.9473C25.4862 31.9473 26.7426 25.6656 26.7426 15.6147C26.7426 15.6147 26.7426 6.82025 17.8224 6.82025ZM20.4608 29.4346C19.707 29.4346 19.2044 28.9321 19.2044 28.1783V27.927C19.2044 25.163 17.5712 22.5247 15.0585 21.1427C13.0483 20.1376 11.7919 18.1274 11.6663 15.866C11.6663 14.2327 12.2945 12.4738 13.4252 11.2175C14.5559 9.96114 16.1892 9.33296 17.6968 9.33296C23.8529 9.33296 24.2298 14.6096 24.2298 15.6147C24.2298 28.0526 22.094 29.4346 20.4608 29.4346ZM22.7222 13.8558L13.2996 17.248C13.0483 16.8711 12.9227 16.3685 12.9227 15.7404C12.9227 14.8609 13.1739 14.1071 13.5508 13.2277L20.0839 10.8406C21.5915 11.5944 22.3453 12.7251 22.7222 13.8558ZM19.0788 23.2785L22.5966 22.0221C22.4709 23.9067 22.094 25.2887 21.8428 26.1681L20.2095 26.7963C20.2095 25.5399 19.8326 24.4092 19.0788 23.2785ZM22.9735 15.866C22.9735 17.3736 22.9735 18.7556 22.8479 19.8863L17.8224 21.7709C17.1943 21.1427 16.4404 20.5145 15.561 20.1376C15.0585 19.8863 14.5559 19.5094 14.179 19.1325L22.9735 15.866Z" fill="#EC202C"/>
    <path d="M66.572 12.2434C68.1434 12.2434 69.3941 12.7405 70.3241 13.7346C71.2701 14.7288 71.7432 16.1478 71.7432 17.9918V25.7126H69.0012V18.2805C69.0012 17.126 68.7126 16.236 68.1353 15.6107C67.5581 14.9693 66.7644 14.6486 65.7542 14.6486C64.6798 14.6486 63.822 14.9933 63.1806 15.6828C62.5552 16.3563 62.2426 17.3505 62.2426 18.6653V25.7126H59.5006V18.2805C59.5006 17.126 59.212 16.236 58.6347 15.6107C58.0575 14.9693 57.2638 14.6486 56.2536 14.6486C55.1792 14.6486 54.3214 14.9933 53.68 15.6828C53.0546 16.3563 52.7419 17.3505 52.7419 18.6653V25.7126H50V12.4598H52.7419V15.2258C53.0787 14.2638 53.6399 13.5262 54.4256 13.013C55.2113 12.4999 56.1333 12.2434 57.1916 12.2434C58.298 12.2434 59.2521 12.516 60.0538 13.0611C60.8716 13.6063 61.4649 14.392 61.8337 15.4183C62.2185 14.4241 62.8358 13.6464 63.6857 13.0852C64.5355 12.524 65.4976 12.2434 66.572 12.2434Z" fill="black"/>
    <path d="M87.2595 18.4488C87.2595 18.8978 87.2274 19.2907 87.1632 19.6274H76.9651C77.0132 20.9904 77.39 22.0005 78.0956 22.658C78.8011 23.3154 79.675 23.6441 80.7173 23.6441C81.6313 23.6441 82.4009 23.4116 83.0263 22.9466C83.6677 22.4816 84.0605 21.8642 84.2048 21.0946H87.1392C86.9628 22.0246 86.594 22.8504 86.0328 23.572C85.4716 24.2935 84.742 24.8628 83.8441 25.2797C82.9461 25.6805 81.9439 25.881 80.8375 25.881C79.5547 25.881 78.4163 25.6084 77.4221 25.0632C76.444 24.518 75.6743 23.7323 75.1131 22.7061C74.5519 21.6798 74.2713 20.4692 74.2713 19.0742C74.2713 17.6952 74.5519 16.4926 75.1131 15.4664C75.6743 14.4401 76.444 13.6544 77.4221 13.1093C78.4163 12.5641 79.5547 12.2915 80.8375 12.2915C82.1363 12.2915 83.2668 12.5641 84.2289 13.1093C85.207 13.6384 85.9526 14.376 86.4657 15.3221C86.9949 16.2521 87.2595 17.2943 87.2595 18.4488ZM84.4935 18.3767C84.5255 17.5108 84.3732 16.7892 84.0365 16.212C83.7158 15.6187 83.2668 15.1858 82.6895 14.9132C82.1283 14.6245 81.511 14.4802 80.8375 14.4802C79.7632 14.4802 78.8652 14.8089 78.1437 15.4664C77.4221 16.1238 77.0293 17.0939 76.9651 18.3767H84.4935Z" fill="black"/>
    <path d="M95.2224 12.2915C96.425 12.2915 97.4513 12.5881 98.3011 13.1814C99.1509 13.7747 99.7523 14.5604 100.105 15.5385V12.4598H102.847V25.7126H100.105V22.6339C99.7523 23.612 99.1509 24.3977 98.3011 24.991C97.4513 25.5843 96.425 25.881 95.2224 25.881C94.0679 25.881 93.0337 25.6084 92.1197 25.0632C91.2217 24.518 90.5162 23.7323 90.0031 22.7061C89.49 21.6798 89.2334 20.4692 89.2334 19.0742C89.2334 17.6952 89.49 16.4926 90.0031 15.4664C90.5162 14.4401 91.2217 13.6544 92.1197 13.1093C93.0337 12.5641 94.0679 12.2915 95.2224 12.2915ZM96.0642 14.6967C94.8456 14.6967 93.8675 15.0896 93.1299 15.8753C92.4083 16.6449 92.0475 17.7112 92.0475 19.0742C92.0475 20.4372 92.4083 21.5115 93.1299 22.2972C93.8675 23.0669 94.8456 23.4517 96.0642 23.4517C96.8339 23.4517 97.5234 23.2753 98.1327 22.9225C98.7421 22.5537 99.2231 22.0406 99.5759 21.3832C99.9286 20.7258 100.105 19.9561 100.105 19.0742C100.105 18.2083 99.9286 17.4467 99.5759 16.7892C99.2231 16.1158 98.7421 15.6027 98.1327 15.2499C97.5234 14.8811 96.8339 14.6967 96.0642 14.6967Z" fill="black"/>
    <path d="M112.8 23.3314V25.7126H111.116C109.705 25.7126 108.631 25.3759 107.893 24.7024C107.172 24.0129 106.811 22.8744 106.811 21.287V14.7929H104.911V12.4598H106.811V9.1647H109.577V12.4598H112.776V14.7929H109.577V21.3351C109.577 22.0887 109.713 22.6099 109.986 22.8985C110.274 23.1871 110.771 23.3314 111.477 23.3314H112.8Z" fill="black"/>
    <path d="M127.683 18.4488C127.683 18.8978 127.651 19.2907 127.587 19.6274H117.389C117.437 20.9904 117.814 22.0005 118.519 22.658C119.225 23.3154 120.099 23.6441 121.141 23.6441C122.055 23.6441 122.825 23.4116 123.45 22.9466C124.091 22.4816 124.484 21.8642 124.628 21.0946H127.563C127.386 22.0246 127.018 22.8504 126.456 23.572C125.895 24.2935 125.166 24.8628 124.268 25.2797C123.37 25.6805 122.368 25.881 121.261 25.881C119.978 25.881 118.84 25.6084 117.846 25.0632C116.868 24.518 116.098 23.7323 115.537 22.7061C114.976 21.6798 114.695 20.4692 114.695 19.0742C114.695 17.6952 114.976 16.4926 115.537 15.4664C116.098 14.4401 116.868 13.6544 117.846 13.1093C118.84 12.5641 119.978 12.2915 121.261 12.2915C122.56 12.2915 123.69 12.5641 124.653 13.1093C125.631 13.6384 126.376 14.376 126.889 15.3221C127.419 16.2521 127.683 17.2943 127.683 18.4488ZM124.917 18.3767C124.949 17.5108 124.797 16.7892 124.46 16.212C124.139 15.6187 123.69 15.1858 123.113 14.9132C122.552 14.6245 121.935 14.4802 121.261 14.4802C120.187 14.4802 119.289 14.8089 118.567 15.4664C117.846 16.1238 117.453 17.0939 117.389 18.3767H124.917Z" fill="black"/>
    <path d="M133.072 15.0575C133.521 14.1916 134.163 13.5101 134.997 13.013C135.83 12.4999 136.793 12.2434 137.883 12.2434V15.2258H137.065C135.863 15.2258 134.892 15.5225 134.155 16.1158C133.433 16.693 133.072 17.6551 133.072 19.002V25.7126H130.331V12.4598H133.072V15.0575Z" fill="black"/>
    <path d="M139.552 8.6115C139.552 8.14649 139.713 7.76165 140.034 7.45699C140.354 7.15233 140.779 7 141.308 7C141.837 7 142.262 7.15233 142.583 7.45699C142.92 7.76165 143.088 8.14649 143.088 8.6115C143.088 9.07651 142.92 9.45332 142.583 9.74195C142.262 10.0306 141.837 10.1749 141.308 10.1749C140.779 10.1749 140.354 10.0306 140.034 9.74195C139.713 9.45332 139.552 9.07651 139.552 8.6115ZM142.679 12.4598V25.7126H139.937V12.4598H142.679Z" fill="black"/>
    <path d="M151.313 12.2915C152.515 12.2915 153.542 12.5881 154.392 13.1814C155.241 13.7747 155.843 14.5604 156.195 15.5385V12.4598H158.937V25.7126H156.195V22.6339C155.843 23.612 155.241 24.3977 154.392 24.991C153.542 25.5843 152.515 25.881 151.313 25.881C150.158 25.881 149.124 25.6084 148.21 25.0632C147.312 24.518 146.607 23.7323 146.094 22.7061C145.58 21.6798 145.324 20.4692 145.324 19.0742C145.324 17.6952 145.58 16.4926 146.094 15.4664C146.607 14.4401 147.312 13.6544 148.21 13.1093C149.124 12.5641 150.158 12.2915 151.313 12.2915ZM152.155 14.6967C150.936 14.6967 149.958 15.0896 149.22 15.8753C148.499 16.6449 148.138 17.7112 148.138 19.0742C148.138 20.4372 148.499 21.5115 149.22 22.2972C149.958 23.0669 150.936 23.4517 152.155 23.4517C152.924 23.4517 153.614 23.2753 154.223 22.9225C154.832 22.5537 155.314 22.0406 155.666 21.3832C156.019 20.7258 156.195 19.9561 156.195 19.0742C156.195 18.2083 156.019 17.4467 155.666 16.7892C155.314 16.1158 154.832 15.6027 154.223 15.2499C153.614 14.8811 152.924 14.6967 152.155 14.6967Z" fill="black"/>
</svg>
