<svg width="26" height="26" viewBox="0 0 26 26" fill="none" xmlns="http://www.w3.org/2000/svg">
    <circle cx="13" cy="13" r="13" fill="black"/>
    <circle cx="13" cy="13" r="11" fill="white"/>
    <path d="M12.4126 4.75C9.00011 4.75 6.28761 7.725 6.37511 11.1375C6.46261 13.4125 7.77511 15.3375 9.61261 16.3C10.8376 16.9125 11.6251 18.1375 11.6251 19.45V19.625C11.6251 21.1125 12.7626 22.25 14.2501 22.25C17.7501 22.25 18.6251 17.875 18.6251 10.875C18.6251 10.875 18.6251 4.75 12.4126 4.75ZM14.2501 20.5C13.7251 20.5 13.3751 20.15 13.3751 19.625V19.45C13.3751 17.525 12.2376 15.6875 10.4876 14.725C9.08761 14.025 8.21261 12.625 8.12511 11.05C8.12511 9.9125 8.56261 8.6875 9.35011 7.8125C10.1376 6.9375 11.2751 6.5 12.3251 6.5C16.6126 6.5 16.8751 10.175 16.8751 10.875C16.8751 19.5375 15.3876 20.5 14.2501 20.5ZM15.8251 9.65L9.26261 12.0125C9.08761 11.75 9.00011 11.4 9.00011 10.9625C9.00011 10.35 9.17511 9.825 9.43761 9.2125L13.9876 7.55C15.0376 8.075 15.5626 8.8625 15.8251 9.65ZM13.2876 16.2125L15.7376 15.3375C15.6501 16.65 15.3876 17.6125 15.2126 18.225L14.0751 18.6625C14.0751 17.7875 13.8126 17 13.2876 16.2125ZM16.0001 11.05C16.0001 12.1 16.0001 13.0625 15.9126 13.85L12.4126 15.1625C11.9751 14.725 11.4501 14.2875 10.8376 14.025C10.4876 13.85 10.1376 13.5875 9.87511 13.325L16.0001 11.05Z" fill="#EC202C"/>
</svg>
